<svg width="88" height="30" viewBox="0 0 88 30" fill="none" xmlns="http://www.w3.org/2000/svg">
<path d="M9.47 29.33C7.49 29.33 6 28.84 5 27.86C4 26.86 3.5 25.37 3.5 23.39V17.18H0.62V13.79H3.5V10.07L8.03 8.96V13.79H11.93V17.18H8.03V23.15C8.03 24.11 8.23 24.77 8.63 25.13C9.03 25.49 9.54 25.67 10.16 25.67C10.54 25.67 10.85 25.65 11.09 25.61C11.35 25.55 11.62 25.47 11.9 25.37V28.88C11.52 29.04 11.12 29.15 10.7 29.21C10.28 29.29 9.87 29.33 9.47 29.33ZM21.758 29.33C19.118 29.33 17.058 28.62 15.578 27.2C14.098 25.78 13.358 23.85 13.358 21.41C13.358 19.83 13.668 18.45 14.288 17.27C14.928 16.09 15.808 15.17 16.928 14.51C18.068 13.83 19.398 13.49 20.918 13.49C22.418 13.49 23.668 13.81 24.668 14.45C25.688 15.09 26.448 15.99 26.948 17.15C27.468 18.29 27.728 19.62 27.728 21.14V22.19H17.078V19.94H24.428L23.918 20.36C23.918 19.1 23.658 18.15 23.138 17.51C22.638 16.85 21.908 16.52 20.948 16.52C19.888 16.52 19.068 16.91 18.488 17.69C17.928 18.47 17.648 19.59 17.648 21.05V21.53C17.648 23.01 18.008 24.11 18.728 24.83C19.468 25.55 20.528 25.91 21.908 25.91C22.728 25.91 23.498 25.81 24.218 25.61C24.958 25.39 25.658 25.05 26.318 24.59L27.578 27.59C26.818 28.15 25.938 28.58 24.938 28.88C23.958 29.18 22.898 29.33 21.758 29.33ZM36.5122 29.33C35.1922 29.33 34.0322 29.01 33.0322 28.37C32.0322 27.73 31.2522 26.82 30.6922 25.64C30.1322 24.46 29.8522 23.04 29.8522 21.38C29.8522 19.74 30.1322 18.33 30.6922 17.15C31.2522 15.97 32.0322 15.07 33.0322 14.45C34.0322 13.81 35.1922 13.49 36.5122 13.49C37.7322 13.49 38.8222 13.79 39.7822 14.39C40.7622 14.97 41.4022 15.76 41.7022 16.76H41.3722L41.7322 13.79H46.0822C46.0222 14.45 45.9622 15.12 45.9022 15.8C45.8622 16.46 45.8422 17.11 45.8422 17.75V29H41.3422L41.3122 26.15H41.6722C41.3522 27.11 40.7122 27.88 39.7522 28.46C38.7922 29.04 37.7122 29.33 36.5122 29.33ZM37.8922 25.91C38.9322 25.91 39.7722 25.54 40.4122 24.8C41.0522 24.06 41.3722 22.92 41.3722 21.38C41.3722 19.84 41.0522 18.71 40.4122 17.99C39.7722 17.27 38.9322 16.91 37.8922 16.91C36.8522 16.91 36.0122 17.27 35.3722 17.99C34.7322 18.71 34.4122 19.84 34.4122 21.38C34.4122 22.92 34.7222 24.06 35.3422 24.8C35.9822 25.54 36.8322 25.91 37.8922 25.91ZM49.5573 29V17.75C49.5573 17.11 49.5373 16.46 49.4973 15.8C49.4573 15.12 49.3973 14.45 49.3173 13.79H53.6673L53.9973 16.61H53.6373C54.0773 15.65 54.7273 14.89 55.5873 14.33C56.4473 13.77 57.4673 13.49 58.6473 13.49C59.8073 13.49 60.7773 13.77 61.5573 14.33C62.3573 14.87 62.9273 15.72 63.2673 16.88H62.7873C63.2273 15.84 63.9273 15.02 64.8873 14.42C65.8473 13.8 66.9373 13.49 68.1573 13.49C69.8773 13.49 71.1573 14 71.9973 15.02C72.8373 16.04 73.2573 17.64 73.2573 19.82V29H68.7273V19.97C68.7273 18.91 68.5573 18.15 68.2173 17.69C67.8773 17.23 67.3273 17 66.5673 17C65.6673 17 64.9573 17.32 64.4373 17.96C63.9173 18.6 63.6573 19.48 63.6573 20.6V29H59.1273V19.97C59.1273 18.91 58.9573 18.15 58.6173 17.69C58.2773 17.23 57.7273 17 56.9673 17C56.0673 17 55.3573 17.32 54.8373 17.96C54.3373 18.6 54.0873 19.48 54.0873 20.6V29H49.5573ZM77.3833 29V21.32H85.1593V29H77.3833Z" fill="#1E2742"/>
</svg>
