<svg width="163" height="48" viewBox="0 0 163 48" fill="none" xmlns="http://www.w3.org/2000/svg">
<path d="M25.3709 31.608C25.3709 32.952 25.0349 34.184 24.3629 35.304C23.6909 36.424 22.7949 37.32 21.6749 37.992C20.5549 38.664 19.3229 39 17.9789 39H3.02694C2.3176 39 1.7016 38.7573 1.17894 38.272C0.693604 37.7493 0.450938 37.1333 0.450938 36.424V3.72C0.450938 2.97333 0.693604 2.35733 1.17894 1.872C1.7016 1.38666 2.3176 1.144 3.02694 1.144H17.1949C18.5763 1.144 19.8083 1.48 20.8909 2.152C22.0109 2.824 22.9069 3.72 23.5789 4.84C24.2509 5.96 24.5869 7.21066 24.5869 8.592V15.256C24.5869 16.264 24.4003 17.1973 24.0269 18.056C23.8403 18.4667 23.8776 18.8773 24.1389 19.288C24.9603 20.52 25.3709 21.9013 25.3709 23.432V31.608ZM17.9789 15.256V8.592C17.9789 8.368 17.8856 8.18133 17.6989 8.032C17.5496 7.88266 17.3816 7.808 17.1949 7.808H7.89894C7.4136 7.808 7.17094 8.05066 7.17094 8.536V15.256C7.17094 15.7413 7.4136 15.984 7.89894 15.984H17.1949C17.3816 15.984 17.5496 15.9093 17.6989 15.76C17.8856 15.6107 17.9789 15.4427 17.9789 15.256ZM18.7069 31.608V23.432C18.7069 22.9093 18.4643 22.648 17.9789 22.648H7.89894C7.4136 22.648 7.17094 22.8907 7.17094 23.376V31.664C7.17094 32.1493 7.4136 32.392 7.89894 32.392H17.9789C18.1656 32.392 18.3336 32.3173 18.4829 32.168C18.6323 31.9813 18.7069 31.7947 18.7069 31.608ZM50.1995 32.728C50.1995 34.4827 49.5835 35.976 48.3515 37.208C47.1568 38.4027 45.7008 39 43.9835 39H36.1995C34.4822 39 33.0075 38.4027 31.7755 37.208C30.5435 35.976 29.9275 34.4827 29.9275 32.728V16.264C29.9275 15.1067 30.2075 14.0613 30.7675 13.128C31.3648 12.1573 32.1302 11.392 33.0635 10.832C33.9968 10.272 35.0422 9.992 36.1995 9.992H43.9835C45.1408 9.992 46.1862 10.272 47.1195 10.832C48.0528 11.392 48.7995 12.1573 49.3595 13.128C49.9195 14.0613 50.1995 15.1067 50.1995 16.264V32.728ZM43.5915 31.664V17.44C43.5915 17.216 43.4982 17.0293 43.3115 16.88C43.1622 16.7307 42.9942 16.656 42.8075 16.656H37.3755C37.1888 16.656 37.0022 16.7307 36.8155 16.88C36.6662 17.0293 36.5915 17.216 36.5915 17.44V31.664C36.5915 31.8507 36.6662 32.0187 36.8155 32.168C37.0022 32.3173 37.1888 32.392 37.3755 32.392H42.8075C42.9942 32.392 43.1622 32.3173 43.3115 32.168C43.4982 32.0187 43.5915 31.8507 43.5915 31.664ZM75.0276 41.688C75.0276 42.808 74.7476 43.8347 74.1876 44.768C73.6276 45.7387 72.881 46.504 71.9476 47.064C71.0143 47.6613 69.969 47.96 68.8116 47.96H61.0276C60.3183 47.96 59.7023 47.6987 59.1796 47.176C58.6943 46.6907 58.4516 46.0933 58.4516 45.384V43.816C58.4516 43.1067 58.6943 42.5093 59.1796 42.024C59.7023 41.5387 60.3183 41.296 61.0276 41.296H67.6356C67.8223 41.296 67.9903 41.2213 68.1396 41.072C68.3263 40.9227 68.4196 40.7547 68.4196 40.568V39.728C68.4196 39.5413 68.3263 39.3733 68.1396 39.224C67.9903 39.0747 67.8223 39 67.6356 39H61.0276C59.3103 39 57.8356 38.4027 56.6036 37.208C55.3716 35.976 54.7556 34.4827 54.7556 32.728V16.264C54.7556 15.1067 55.0356 14.0613 55.5956 13.128C56.193 12.1573 56.9583 11.392 57.8916 10.832C58.825 10.272 59.8703 9.992 61.0276 9.992H68.8116C69.969 9.992 71.0143 10.272 71.9476 10.832C72.881 11.392 73.6276 12.1573 74.1876 13.128C74.7476 14.0613 75.0276 15.1067 75.0276 16.264V41.688ZM68.4196 31.664V17.44C68.4196 17.216 68.3263 17.0293 68.1396 16.88C67.9903 16.7307 67.8223 16.656 67.6356 16.656H62.2036C62.017 16.656 61.8303 16.7307 61.6436 16.88C61.4943 17.0293 61.4196 17.216 61.4196 17.44V31.664C61.4196 31.8507 61.4943 32.0187 61.6436 32.168C61.8303 32.3173 62.017 32.392 62.2036 32.392H67.6356C67.8223 32.392 67.9903 32.3173 68.1396 32.168C68.3263 32.0187 68.4196 31.8507 68.4196 31.664ZM88.0398 4.728C88.0398 5.88533 87.6104 6.89333 86.7518 7.752C85.9304 8.57333 84.9598 8.984 83.8398 8.984C82.6824 8.984 81.6744 8.57333 80.8158 7.752C79.9944 6.89333 79.5838 5.88533 79.5838 4.728C79.5838 3.608 79.9944 2.63733 80.8158 1.816C81.6744 0.957331 82.6824 0.527998 83.8398 0.527998C84.9598 0.527998 85.9304 0.957331 86.7518 1.816C87.6104 2.63733 88.0398 3.608 88.0398 4.728ZM87.1438 36.424C87.1438 37.1333 86.8824 37.7493 86.3598 38.272C85.8744 38.7573 85.2771 39 84.5678 39H83.0558C82.3464 39 81.7304 38.7573 81.2078 38.272C80.7224 37.7493 80.4798 37.1333 80.4798 36.424V13.184C80.4798 12.4747 80.7224 11.8773 81.2078 11.392C81.7304 10.8693 82.3464 10.608 83.0558 10.608H84.5678C85.2771 10.608 85.8744 10.8693 86.3598 11.392C86.8824 11.8773 87.1438 12.4747 87.1438 13.184V36.424ZM112.817 36.424C112.817 37.1333 112.574 37.7493 112.089 38.272C111.603 38.7573 111.006 39 110.297 39H108.729C108.019 39 107.422 38.7573 106.937 38.272C106.451 37.7493 106.209 37.1333 106.209 36.424V17.44C106.209 17.216 106.115 17.0293 105.929 16.88C105.779 16.7307 105.611 16.656 105.425 16.656H99.9927C99.806 16.656 99.6194 16.7307 99.4327 16.88C99.2834 17.0293 99.2087 17.216 99.2087 17.44V36.424C99.2087 37.1333 98.966 37.7493 98.4807 38.272C97.9954 38.7573 97.398 39 96.6887 39H95.1207C94.4114 39 93.7954 38.7573 93.2727 38.272C92.7874 37.7493 92.5447 37.1333 92.5447 36.424V16.264C92.5447 15.1067 92.8247 14.0613 93.3847 13.128C93.982 12.1573 94.7474 11.392 95.6807 10.832C96.614 10.272 97.6594 9.992 98.8167 9.992H106.601C107.758 9.992 108.803 10.272 109.737 10.832C110.67 11.392 111.417 12.1573 111.977 13.128C112.537 14.0613 112.817 15.1067 112.817 16.264V36.424ZM137.645 32.728C137.645 34.4827 137.029 35.976 135.797 37.208C134.602 38.4027 133.146 39 131.429 39H123.645C121.927 39 120.453 38.4027 119.221 37.208C117.989 35.976 117.373 34.4827 117.373 32.728V16.264C117.373 15.1067 117.653 14.0613 118.213 13.128C118.81 12.1573 119.575 11.392 120.509 10.832C121.442 10.272 122.487 9.992 123.645 9.992H131.429C132.586 9.992 133.631 10.272 134.565 10.832C135.498 11.392 136.245 12.1573 136.805 13.128C137.365 14.0613 137.645 15.1067 137.645 16.264V32.728ZM131.037 31.664V17.44C131.037 17.216 130.943 17.0293 130.757 16.88C130.607 16.7307 130.439 16.656 130.253 16.656H124.821C124.634 16.656 124.447 16.7307 124.261 16.88C124.111 17.0293 124.037 17.216 124.037 17.44V31.664C124.037 31.8507 124.111 32.0187 124.261 32.168C124.447 32.3173 124.634 32.392 124.821 32.392H130.253C130.439 32.392 130.607 32.3173 130.757 32.168C130.943 32.0187 131.037 31.8507 131.037 31.664ZM162.473 32.728C162.473 34.4827 161.857 35.976 160.625 37.208C159.43 38.4027 157.974 39 156.257 39H148.473C146.756 39 145.281 38.4027 144.049 37.208C142.817 35.976 142.201 34.4827 142.201 32.728V16.264C142.201 15.1067 142.481 14.0613 143.041 13.128C143.638 12.1573 144.404 11.392 145.337 10.832C146.27 10.272 147.316 9.992 148.473 9.992H156.257C157.414 9.992 158.46 10.272 159.393 10.832C160.326 11.392 161.073 12.1573 161.633 13.128C162.193 14.0613 162.473 15.1067 162.473 16.264V32.728ZM155.865 31.664V17.44C155.865 17.216 155.772 17.0293 155.585 16.88C155.436 16.7307 155.268 16.656 155.081 16.656H149.649C149.462 16.656 149.276 16.7307 149.089 16.88C148.94 17.0293 148.865 17.216 148.865 17.44V31.664C148.865 31.8507 148.94 32.0187 149.089 32.168C149.276 32.3173 149.462 32.392 149.649 32.392H155.081C155.268 32.392 155.436 32.3173 155.585 32.168C155.772 32.0187 155.865 31.8507 155.865 31.664Z" fill="#02B589"/>
</svg>
